<?xml version="1.0" encoding="UTF-8"?>
<svg width="16px" height="16px" viewBox="0 0 16 16" version="1.1" xmlns="http://www.w3.org/2000/svg" xmlns:xlink="http://www.w3.org/1999/xlink">
    <!-- Generator: Sketch 63.1 (92452) - https://sketch.com -->
    <title>2427421</title>
    <desc>Created with Sketch.</desc>
    <g id="Icons" stroke="none" stroke-width="1" fill="none" fill-rule="evenodd">
        <g id="Artboard" transform="translate(-33.000000, -685.000000)" fill="#AFB9CA" fill-rule="nonzero">
            <g id="2427421" transform="translate(33.000000, 685.000000)">
                <path d="M5.74083871,2.27070968 C5.74083871,1.0203871 6.75806452,0.00316129032 8.00835484,0.00316129032 C9.25864516,0.00316129032 10.275871,1.0203871 10.275871,2.27070968 C10.275871,3.52103226 9.25864516,4.53822581 8.00835484,4.53822581 C6.75806452,4.53822581 5.74083871,3.521 5.74083871,2.27070968 Z M5,8.31312903 L11,8.31312903 C11.2850323,8.31312903 11.516129,8.08206452 11.516129,7.797 L11.516129,6.78190323 C11.516129,6.23009677 11.1905484,5.72812903 10.6866452,5.50312903 L9.51251613,4.97887097 C9.37132258,4.91580645 9.51383871,4.934 6.69790323,4.934 C6.55045161,4.934 6.58667742,4.93458065 5.31335484,5.50312903 C4.80945161,5.72812903 4.48387097,6.23009677 4.48387097,6.78190323 L4.48387097,7.797 C4.48387097,8.08206452 4.71496774,8.31312903 5,8.31312903 Z M14.516129,11.9984839 L14.516129,11.3516774 C14.516129,10.4979032 13.8215161,9.80329032 12.9677419,9.80329032 L8.51612903,9.80329032 L8.51612903,9.25490323 C8.51612903,8.96983871 8.28503226,8.73877419 8,8.73877419 C7.71496774,8.73877419 7.48387097,8.96983871 7.48387097,9.25490323 L7.48387097,9.80329032 L3.03225806,9.80329032 C2.17848387,9.80329032 1.48387097,10.4979032 1.48387097,11.3516774 L1.48387097,11.9984839 C0.659935484,12.0324516 0,12.7130645 0,13.5452258 L0,14.4484516 C0,15.3022581 0.694612903,15.9968387 1.5483871,15.9968387 L2.4516129,15.9968387 C3.3053871,15.9968387 4,15.3022581 4,14.4484516 L4,13.5452258 C4,12.7130645 3.34006452,12.0324516 2.51612903,11.9984839 L2.51612903,11.3516774 C2.51612903,11.0670968 2.74767742,10.8355484 3.03225806,10.8355484 L7.48387097,10.8355484 L7.48387097,11.9984839 C6.65993548,12.0324516 6,12.7130645 6,13.5452258 L6,14.4484516 C6,15.3022581 6.6946129,15.9968387 7.5483871,15.9968387 L8.4516129,15.9968387 C9.3053871,15.9968387 10,15.3022581 10,14.4484516 L10,13.5452258 C10,12.7130645 9.34006452,12.0324516 8.51612903,11.9984839 L8.51612903,10.8355484 L12.9677419,10.8355484 C13.2523226,10.8355484 13.483871,11.0670968 13.483871,11.3516774 L13.483871,11.9984839 C12.6599355,12.0324516 12,12.7130645 12,13.5452258 L12,14.4484516 C12,15.3022581 12.6946129,15.9968387 13.5483871,15.9968387 L14.4516129,15.9968387 C15.3053871,15.9968387 16,15.3022581 16,14.4484516 L16,13.5452258 C16,12.7130645 15.3400645,12.0324516 14.516129,11.9984839 Z" id="Shape"></path>
            </g>
        </g>
    </g>
</svg>