<?xml version="1.0" encoding="UTF-8"?>
<svg width="16px" height="11px" viewBox="0 0 16 11" version="1.1" xmlns="http://www.w3.org/2000/svg" xmlns:xlink="http://www.w3.org/1999/xlink">
    <!-- Generator: Sketch 63.1 (92452) - https://sketch.com -->
    <title>Shape</title>
    <desc>Created with Sketch.</desc>
    <g id="Icons" stroke="none" stroke-width="1" fill="none" fill-rule="evenodd">
        <g id="Artboard" transform="translate(-33.000000, -917.000000)" fill="#AFB9CA" fill-rule="nonzero">
            <path d="M33,917.27907 L33,927.4 L48.2409302,927.4 L48.2409302,917.27907 L33,917.27907 Z M35.6790698,923.976744 C35.6790698,922.99034 36.4787126,922.190698 37.4651163,922.190698 C36.9718995,922.190698 36.572093,921.790861 36.572093,921.297674 C36.572093,920.804487 36.9718995,920.404651 37.4651163,920.404651 C37.958333,920.404651 38.3581395,920.804487 38.3581395,921.297674 C38.3581395,921.790861 37.958333,922.190698 37.4651163,922.190698 C38.45152,922.190698 39.2511628,922.99034 39.2511628,923.976744 L35.6790698,923.976744 Z M44.6688372,924.572093 L41.3348837,924.572093 L41.3348837,923.67907 L44.6688372,923.67907 L44.6688372,924.572093 Z M45.5618605,922.786047 L41.3348837,922.786047 L41.3348837,921.893023 L45.5618605,921.893023 L45.5618605,922.786047 Z M45.5618605,921 L41.3348837,921 L41.3348837,920.106977 L45.5618605,920.106977 L45.5618605,921 Z" id="Shape"></path>
        </g>
    </g>
</svg>