<?xml version="1.0" encoding="UTF-8"?>
<svg width="16px" height="9px" viewBox="0 0 16 9" version="1.1" xmlns="http://www.w3.org/2000/svg" xmlns:xlink="http://www.w3.org/1999/xlink">
    <!-- Generator: Sketch 63.1 (92452) - https://sketch.com -->
    <title>1414498</title>
    <desc>Created with Sketch.</desc>
    <g id="Icons" stroke="none" stroke-width="1" fill="none" fill-rule="evenodd">
        <g id="Artboard" transform="translate(-31.000000, -459.000000)" fill="#AFB9CA" fill-rule="nonzero">
            <g id="1414498" transform="translate(31.000000, 459.000000)">
                <path d="M1.79675294,0 L0.37719725,0 C0.16882325,0 0,0.16882325 0,0.37719725 L0,6.94946288 C0,7.15783691 0.16882325,7.32666016 0.37719725,7.32666016 L1.79675294,7.32666016 C2.00512694,7.32666016 2.17395019,7.15783691 2.17395019,6.94946288 L2.17395019,0.37719725 C2.17395019,0.16882325 2.00512694,0 1.79675294,0 Z" id="Path"></path>
                <path d="M11.7130127,5.92749025 L8.06835938,3.44921875 C8.06323244,3.44580078 8.05810547,3.44226075 8.05310059,3.43859862 C7.89343263,3.32543944 7.75720216,3.26049806 7.67944338,3.26049806 C7.62402344,3.26049806 7.53710938,3.29370119 7.43273925,3.35424806 L6.35461425,4.12805175 C6.34838869,4.13256837 6.342041,4.13696288 6.33557128,4.14135744 C6.01367188,4.36083984 5.63598631,4.47692872 5.24353028,4.47692872 C4.88464356,4.47692872 4.52880859,4.38098144 4.21411131,4.19934081 C3.7491455,3.93090819 3.42932128,3.47387694 3.33691406,2.9453125 C3.24450684,2.41699219 3.39013672,1.87890625 3.73620606,1.46899412 C3.77185059,1.42675781 3.98071288,1.24548341 3.98071288,1.24548341 L3.13781738,1.24548341 L3.13781738,6.49438475 L5.89196778,8.11828613 C6.06738281,8.22753906 6.26428222,8.27612306 6.45434569,8.27612306 C6.86059569,8.27612306 7.23486328,8.05371094 7.29663088,7.72619628 C7.46472169,7.96191406 7.80114747,8.07580566 8.14807128,8.07580566 C8.57971191,8.07580566 9.02758788,7.89941406 9.18786622,7.56152344 C9.33386231,7.7039795 9.58239747,7.77307128 9.83862306,7.77307128 C10.2460938,7.77307128 10.6727295,7.59826659 10.736084,7.26635744 C10.9024658,7.39282225 11.0980225,7.44580078 11.2939453,7.44580078 C11.9343262,7.44580078 12.5775147,6.88000488 12.2086182,6.46984863 L11.7130127,5.92749025 Z" id="Path"></path>
                <path d="M15.6228027,0 L14.2032471,0 C13.9948731,0 13.8260498,0.16882325 13.8260498,0.37719725 L13.8260498,7.11364747 C13.8260498,7.3220215 13.9948731,7.49096681 14.2032471,7.49096681 L15.6228028,7.49096681 C15.8311768,7.49096681 16,7.3220215 16,7.11364747 L16,0.37719725 C16,0.16882325 15.8311767,0 15.6228027,0 Z" id="Path"></path>
                <path d="M6.07556153,0.747192375 L4.47265625,2.09082031 C4.133667,2.4921875 4.2404785,3.10180662 4.69592284,3.36462403 C4.85620119,3.45715331 5.04736328,3.51306153 5.24340819,3.51306153 C5.42956544,3.51306153 5.62011719,3.46252441 5.79260253,3.34497069 L6.90380859,2.54748534 C7.17614747,2.38171387 7.42687987,2.29663087 7.67944337,2.29663087 C7.9748535,2.29663087 8.27270506,2.41296387 8.61035156,2.65222169 L12.5759277,5.34863281 L12.8621826,5.28161622 L12.8621826,0.37719725 C12.8621826,0.330932625 12.8645019,0.285034188 12.8691406,0.239990151 L7.37121581,0.239990151 C6.76452637,0.239868156 6.57226562,0.353149406 6.07556153,0.747192375 Z" id="Path"></path>
            </g>
        </g>
    </g>
</svg>