<?xml version="1.0" encoding="UTF-8"?>
<svg width="16px" height="9px" viewBox="0 0 16 9" version="1.1" xmlns="http://www.w3.org/2000/svg" xmlns:xlink="http://www.w3.org/1999/xlink">
    <!-- Generator: Sketch 63.1 (92452) - https://sketch.com -->
    <title>535193</title>
    <desc>Created with Sketch.</desc>
    <g id="Icons" stroke="none" stroke-width="1" fill="none" fill-rule="evenodd">
        <g id="Artboard" transform="translate(-31.000000, -136.000000)" fill="#C5CCD9" fill-rule="nonzero">
            <g id="535193" transform="translate(31.000000, 136.000000)">
                <path d="M15.8805312,3.90609375 C15.7377187,3.74678125 12.3025625,0 8,0 C3.6974375,0 0.2623125,3.74678125 0.11946875,3.90609375 C-0.03984375,4.08415625 -0.03984375,4.35334375 0.11946875,4.53140625 C0.2623125,4.69071875 3.6975,8.4375 8,8.4375 C12.3025,8.4375 15.7376875,4.69071875 15.8805312,4.53140625 C16.0398125,4.35334375 16.0398125,4.08415625 15.8805312,3.90609375 Z M8,7.5 C6.19090625,7.5 4.71875,6.02784375 4.71875,4.21875 C4.71875,2.40965625 6.19090625,0.9375 8,0.9375 C9.80909375,0.9375 11.28125,2.40965625 11.28125,4.21875 C11.28125,6.02784375 9.80909375,7.5 8,7.5 Z" id="Shape"></path>
                <path d="M8.46875,3.28125 C8.46875,2.8096875 8.70284375,2.39484375 9.05896875,2.1396875 C8.73940625,1.97609375 8.38296875,1.875 8,1.875 C6.70771875,1.875 5.65625,2.92646875 5.65625,4.21875 C5.65625,5.51103125 6.70771875,6.5625 8,6.5625 C9.157,6.5625 10.114625,5.7176875 10.3038125,4.6138125 C9.359875,4.91771875 8.46875,4.2038125 8.46875,3.28125 Z" id="Path"></path>
            </g>
        </g>
    </g>
</svg>