<?xml version="1.0" encoding="UTF-8"?>
<svg width="16px" height="11px" viewBox="0 0 16 11" version="1.1" xmlns="http://www.w3.org/2000/svg" xmlns:xlink="http://www.w3.org/1999/xlink">
    <!-- Generator: Sketch 63.1 (92452) - https://sketch.com -->
    <title>Group 5</title>
    <desc>Created with Sketch.</desc>
    <g id="Icons" stroke="none" stroke-width="1" fill="none" fill-rule="evenodd">
        <g id="Artboard" transform="translate(-34.000000, -1009.000000)" fill="#C6CCD8" fill-rule="nonzero">
            <g id="Group-5" transform="translate(34.000000, 1009.000000)">
                <polygon id="Path" points="2.66666667 4.36946617 9.33333333 4.36946617 9.33333333 5.7027995 2.66666667 5.7027995"></polygon>
                <polygon id="Path" points="-9.32587341e-15 4.36946617 1.33333333 4.36946617 1.33333333 5.7027995 -9.32587341e-15 5.7027995"></polygon>
                <polygon id="Path" points="2.66666667 8.36946617 12.0878907 8.36946617 11.4453125 9.33333333 12.5546875 10.0729167 14.578776 7.03613283 2.66666667 7.03613283"></polygon>
                <polygon id="Path" points="6.66666667 4.36946617 13.3333333 4.36946617 13.3333333 5.7027995 6.66666667 5.7027995"></polygon>
                <polygon id="Path" points="14.6666667 4.36946617 16 4.36946617 16 5.7027995 14.6666667 5.7027995"></polygon>
                <polygon id="Path" points="13.328776 1.7027995 4.57421867 1.7027995 5.21679683 0.739583333 4.10742183 3.10862447e-15 2.08333333 3.03613283 13.328776 3.03613283"></polygon>
            </g>
        </g>
    </g>
</svg>