<?xml version="1.0" encoding="UTF-8"?>
<svg width="17px" height="16px" viewBox="0 0 17 16" version="1.1" xmlns="http://www.w3.org/2000/svg" xmlns:xlink="http://www.w3.org/1999/xlink">
    <!-- Generator: Sketch 63.1 (92452) - https://sketch.com -->
    <title>Group</title>
    <desc>Created with Sketch.</desc>
    <g id="Icons" stroke="none" stroke-width="1" fill="none" fill-rule="evenodd">
        <g id="Artboard" transform="translate(-33.000000, -40.000000)" fill="#C5CCD9">
            <g id="Group" transform="translate(33.000000, 40.000000)">
                <path d="M8.35714286,6.66666667 C7.34415078,6.66666667 6.48701649,6.34259583 5.78571429,5.69444444 C5.08441208,5.04629306 4.73376623,4.25926389 4.73376623,3.33333333 C4.73376623,2.40740278 5.08441208,1.62037361 5.78571429,0.972222222 C6.48701649,0.324070833 7.34415078,1.49213975e-14 8.35714286,1.49213975e-14 C9.3311737,1.49213975e-14 10.1688277,0.324070833 10.8701299,0.972222222 C11.5714321,1.62037361 11.9220779,2.40740278 11.9220779,3.33333333 C11.9220779,4.25926389 11.5714321,5.04629306 10.8701299,5.69444444 C10.1688277,6.34259583 9.3311737,6.66666667 8.35714286,6.66666667 Z" id="Path"></path>
                <path d="M2.86363636,10.1666667 C4.77273682,9.46295944 6.60388734,9.11111111 8.35714286,9.11111111 C10.1103984,9.11111111 11.9610292,9.46295944 13.9090909,10.1666667 C15.8571526,10.8703739 16.8311688,11.8148089 16.8311688,13 L16.8311688,16 L-1.45338287e-15,16 L-1.45338287e-15,13 C-1.45338287e-15,11.8148089 0.954535909,10.8703739 2.86363636,10.1666667 Z" id="Path"></path>
            </g>
        </g>
    </g>
</svg>