<?xml version="1.0" encoding="UTF-8"?>
<svg width="16px" height="13px" viewBox="0 0 16 13" version="1.1" xmlns="http://www.w3.org/2000/svg" xmlns:xlink="http://www.w3.org/1999/xlink">
    <!-- Generator: Sketch 63.1 (92452) - https://sketch.com -->
    <title>Group 2</title>
    <desc>Created with Sketch.</desc>
    <g id="Icons" stroke="none" stroke-width="1" fill="none" fill-rule="evenodd">
        <g id="Artboard" transform="translate(-32.000000, -593.000000)" fill="#AFB9CA" fill-rule="nonzero">
            <g id="Group-2" transform="translate(32.000000, 593.000000)">
                <path d="M10.8928571,4.16666667 C10.2976161,4.16666667 9.78571643,3.9641224 9.35714286,3.55902778 C8.92856929,3.15393316 8.71428571,2.66203993 8.71428571,2.08333333 C8.71428571,1.50462674 8.92856929,1.01273351 9.35714286,0.607638889 C9.78571643,0.202544271 10.2976161,0 10.8928571,0 C11.5119079,0 12.0357121,0.202544271 12.4642857,0.607638889 C12.8928593,1.01273351 13.1071429,1.50462674 13.1071429,2.08333333 C13.1071429,2.66203993 12.8928593,3.15393316 12.4642857,3.55902778 C12.0357121,3.9641224 11.5119079,4.16666667 10.8928571,4.16666667 Z M5.10714286,4.16666667 C4.48809214,4.16666667 3.96428786,3.9641224 3.53571429,3.55902778 C3.10714071,3.15393316 2.89285714,2.66203993 2.89285714,2.08333333 C2.89285714,1.50462674 3.10714071,1.01273351 3.53571429,0.607638889 C3.96428786,0.202544271 4.48809214,0 5.10714286,0 C5.70238393,0 6.21428357,0.202544271 6.64285714,0.607638889 C7.07143071,1.01273351 7.28571429,1.50462674 7.28571429,2.08333333 C7.28571429,2.66203993 7.07143071,3.15393316 6.64285714,3.55902778 C6.21428357,3.9641224 5.70238393,4.16666667 5.10714286,4.16666667 Z M1.75,6.35416667 C2.9166725,5.91434965 4.03570893,5.69444444 5.10714286,5.69444444 C6.17857679,5.69444444 7.30951786,5.91434965 8.5,6.35416667 C9.69048214,6.79398368 10.2857143,7.38425556 10.2857143,8.125 L0,8.125 C0,7.38425556 0.5833275,6.79398368 1.75,6.35416667 Z M10.8928571,6.07638889 C12.0833393,6.07638889 13.2321373,6.23842431 14.3392857,6.5625 C15.4464341,6.88657569 16,7.40740382 16,8.125 L11.4285714,8.125 C11.4285714,7.63888646 11.3452389,7.26273281 11.1785714,6.99652778 C11.0119039,6.73032274 10.7142879,6.43518681 10.2857143,6.11111111 C10.4523818,6.08796285 10.6547607,6.07638889 10.8928571,6.07638889 Z" id="-copy"></path>
                <g id="Group-3" transform="translate(0.000000, 9.000000)">
                    <polygon id="Path" points="0.878958899 0.798404775 0.878958899 3.80952381 1.52380952 3.80952381 1.52380952 0 1.00381665 0 0 0.726302723 0.265322712 1.21437815"></polygon>
                    <path d="M4.57625075,3.80952381 C5.46835443,3.80952381 6.0952381,3.02199765 6.0952381,1.90220997 C6.0952381,0.787526157 5.46835443,0 4.57625075,0 C3.68028933,0 3.04761905,0.787526157 3.04761905,1.90220997 C3.04761905,3.02199765 3.68028933,3.80952381 4.57625075,3.80952381 L4.57625075,3.80952381 Z M4.57625075,0.610677283 C5.08764316,0.610677283 5.45220012,1.14122391 5.45220012,1.90220997 C5.45220012,2.66319604 5.08764316,3.19884653 4.57625075,3.19884653 C4.06003617,3.19884653 3.69572031,2.66294085 3.69572031,1.90220997 C3.69572031,1.1414791 4.06003617,0.610677283 4.57625075,0.610677283 L4.57625075,0.610677283 Z" id="Shape"></path>
                    <polygon id="Path" points="7.73606371 0.798404775 7.73606371 3.80952381 8.38095238 3.80952381 8.38095238 0 7.86088087 0 6.85714286 0.726302723 7.12237933 1.21437815"></polygon>
                    <polygon id="Path" points="10.7835779 0.798404775 10.7835779 3.80952381 11.4285714 3.80952381 11.4285714 0 10.9084154 0 9.9047619 0.726302723 10.1702892 1.21437815"></polygon>
                    <path d="M14.4808925,3.80952381 C15.3730667,3.80952381 16,3.02199765 16,1.90220997 C16,0.787526157 15.3730667,0 14.4808925,0 C13.5851013,0 12.952381,0.787526157 12.952381,1.90220997 C12.952381,3.02199765 13.5851013,3.80952381 14.4808925,3.80952381 Z M14.4808925,0.610677283 C14.9925665,0.610677283 15.3569111,1.14122391 15.3569111,1.90220997 C15.3569111,2.66319604 14.9925665,3.19884653 14.4808925,3.19884653 C13.9648782,3.19884653 13.6002924,2.66294085 13.6002924,1.90220997 C13.6002924,1.1414791 13.9648782,0.610677283 14.4808925,0.610677283 L14.4808925,0.610677283 Z" id="Shape"></path>
                </g>
            </g>
        </g>
    </g>
</svg>