<?xml version="1.0" encoding="UTF-8"?>
<svg width="14px" height="16px" viewBox="0 0 14 16" version="1.1" xmlns="http://www.w3.org/2000/svg" xmlns:xlink="http://www.w3.org/1999/xlink">
    <!-- Generator: Sketch 63.1 (92452) - https://sketch.com -->
    <title>253298</title>
    <desc>Created with Sketch.</desc>
    <g id="Icons" stroke="none" stroke-width="1" fill="none" fill-rule="evenodd">
        <g id="Artboard" transform="translate(-33.000000, -497.000000)" fill="#AFB9CA" fill-rule="nonzero">
            <g id="253298" transform="translate(33.000000, 497.000000)">
                <path d="M13.1087091,4.3655 C13.1037455,4.300375 13.0482545,4.25 12.9818182,4.25 L10.6909091,4.25 L10.6909091,3.625 C10.6909091,1.626125 9.03509091,0 7,0 C4.96490909,0 3.30909091,1.626125 3.30909091,3.625 L3.30909091,4.25 L1.01818182,4.25 C0.951745455,4.25 0.896254545,4.300375 0.891290909,4.3655 L0.000381818182,15.8655 C-0.00229090909,15.900125 0.0098,15.934375 0.0339818182,15.959875 C0.0580363636,15.9855 0.0918909091,16 0.127272727,16 L13.8727273,16 C13.9081091,16 13.9419636,15.9855 13.9660182,15.96 C13.9900727,15.9345 14.0022909,15.90025 13.9996182,15.865625 L13.1087091,4.3655 Z M4.32727273,3.625 C4.32727273,2.177625 5.52618182,1 7,1 C8.47381818,1 9.67272727,2.177625 9.67272727,3.625 L9.67272727,4.25 L4.32727273,4.25 L4.32727273,3.625 Z M3.81818182,7.75 C3.11627273,7.75 2.54545455,7.18925 2.54545455,6.5 C2.54545455,6.001125 2.8,5.551625 3.30909091,5.354375 L3.30909091,6.5 C3.30909091,6.77575 3.53754545,7 3.81818182,7 C4.09881818,7 4.32727273,6.77575 4.32727273,6.5 L4.32727273,5.355125 C4.83636364,5.552375 5.09090909,6.00525 5.09090909,6.5 C5.09090909,7.18925 4.52009091,7.75 3.81818182,7.75 Z M10.1818182,7.75 C9.47990909,7.75 8.90909091,7.18925 8.90909091,6.5 C8.90909091,6.001125 9.16363636,5.551625 9.67272727,5.354375 L9.67272727,6.5 C9.67272727,6.77575 9.90118182,7 10.1818182,7 C10.4624545,7 10.6909091,6.77575 10.6909091,6.5 L10.6909091,5.355125 C11.2,5.552375 11.4545455,6.00525 11.4545455,6.5 C11.4545455,7.18925 10.8837273,7.75 10.1818182,7.75 Z" id="Shape"></path>
            </g>
        </g>
    </g>
</svg>