<?xml version="1.0" encoding="UTF-8"?>
<svg width="14px" height="14px" viewBox="0 0 14 14" version="1.1" xmlns="http://www.w3.org/2000/svg" xmlns:xlink="http://www.w3.org/1999/xlink">
    <!-- Generator: Sketch 63.1 (92452) - https://sketch.com -->
    <title>408248</title>
    <desc>Created with Sketch.</desc>
    <g id="Icons" stroke="none" stroke-width="1" fill="none" fill-rule="evenodd">
        <g id="Artboard" transform="translate(-32.000000, -362.000000)" fill="#AFB9CA" fill-rule="nonzero">
            <g id="408248" transform="translate(32.000000, 362.000000)">
                <rect id="Rectangle" x="1.82609766" y="7.30433594" width="1.52173438" height="1.21739844"></rect>
                <rect id="Rectangle" x="1.82609766" y="9.73913281" width="1.52173438" height="1.21739844"></rect>
                <path d="M4.26086719,0 L4.26086719,5.17390234 L0,5.17390234 L0,14 L7.91303516,14 L7.91303516,9.73913281 L10.3478047,9.73913281 L10.3478047,14 L14,14 L14,0 L4.26086719,0 Z M4.26086719,13.0869648 L0.913035156,13.0869648 L0.913035156,6.08696484 L4.26086719,6.08696484 L4.26086719,13.0869648 Z M7,10.9565312 L5.78260156,10.9565312 L5.78260156,9.73913281 L7,9.73913281 L7,10.9565312 Z M7,8.52173437 L5.78260156,8.52173437 L5.78260156,7.30433594 L7,7.30433594 L7,8.52173437 Z M7,6.08696484 L5.78260156,6.08696484 L5.78260156,4.86956641 L7,4.86956641 L7,6.08696484 Z M7,3.65216797 L5.78260156,3.65216797 L5.78260156,2.43479687 L7,2.43479687 L7,3.65216797 Z M9.73913281,8.52173437 L8.52173437,8.52173437 L8.52173437,7.30433594 L9.73913281,7.30433594 L9.73913281,8.52173437 Z M9.73913281,6.08696484 L8.52173437,6.08696484 L8.52173437,4.86956641 L9.73913281,4.86956641 L9.73913281,6.08696484 Z M9.73913281,3.65216797 L8.52173437,3.65216797 L8.52173437,2.43479687 L9.73913281,2.43479687 L9.73913281,3.65216797 Z M12.4782656,10.9565312 L11.2608672,10.9565312 L11.2608672,9.73913281 L12.4782656,9.73913281 L12.4782656,10.9565312 Z M12.4782656,8.52173437 L11.2608672,8.52173437 L11.2608672,7.30433594 L12.4782656,7.30433594 L12.4782656,8.52173437 Z M12.4782656,6.08696484 L11.2608672,6.08696484 L11.2608672,4.86956641 L12.4782656,4.86956641 L12.4782656,6.08696484 Z M12.4782656,3.65216797 L11.2608672,3.65216797 L11.2608672,2.43479687 L12.4782656,2.43479687 L12.4782656,3.65216797 Z" id="Shape"></path>
            </g>
        </g>
    </g>
</svg>