<?xml version="1.0" encoding="UTF-8"?>
<svg width="16px" height="12px" viewBox="0 0 16 12" version="1.1" xmlns="http://www.w3.org/2000/svg" xmlns:xlink="http://www.w3.org/1999/xlink">
    <!-- Generator: Sketch 63.1 (92452) - https://sketch.com -->
    <title></title>
    <desc>Created with Sketch.</desc>
    <g id="Icons" stroke="none" stroke-width="1" fill="none" fill-rule="evenodd">
        <g id="Artboard" transform="translate(-31.000000, -409.000000)" fill="#AFB9CA" fill-rule="nonzero">
            <path d="M46,409 C46.2857157,409 46.5238086,409.099999 46.7142857,409.3 C46.9047629,409.5 47,409.749999 47,410.05 L47,419.95 C47,420.250001 46.9047629,420.5 46.7142857,420.7 C46.5238086,420.900001 46.2857157,421 46,421 L32,421 C31.7142843,421 31.4761914,420.900001 31.2857143,420.7 C31.0952371,420.5 31,420.250001 31,419.95 L31,410.05 C31,409.749999 31.0952371,409.5 31.2857143,409.3 C31.4761914,409.099999 31.7142843,409 32,409 L46,409 Z M32.6071429,410.2 C32.3452368,410.2 32.1904764,410.349999 32.1428571,410.65 L32.1428571,411.4 L45.8571429,411.4 L45.8571429,410.65 C45.8095236,410.349999 45.6547632,410.2 45.3928571,410.2 L32.6071429,410.2 Z M45.3928571,419.8 C45.6547632,419.8 45.8095236,419.650001 45.8571429,419.35 L45.8571429,415 L32.1428571,415 L32.1428571,419.35 C32.1904764,419.650001 32.3452368,419.8 32.6071429,419.8 L45.3928571,419.8 Z M33.2857143,417.4 L33.2857143,416.8 L40.1428571,416.8 L40.1428571,417.4 L33.2857143,417.4 Z M33.2857143,418.6 L33.2857143,418 L36.7142857,418 L36.7142857,418.6 L33.2857143,418.6 Z M42.4285714,418.6 L42.4285714,416.8 L44.7142857,416.8 L44.7142857,418.6 L42.4285714,418.6 Z" id=""></path>
        </g>
    </g>
</svg>