<?xml version="1.0" encoding="UTF-8"?>
<svg width="16px" height="12px" viewBox="0 0 16 12" version="1.1" xmlns="http://www.w3.org/2000/svg" xmlns:xlink="http://www.w3.org/1999/xlink">
    <!-- Generator: Sketch 63.1 (92452) - https://sketch.com -->
    <title>Group 4</title>
    <desc>Created with Sketch.</desc>
    <g id="Icons" stroke="none" stroke-width="1" fill="none" fill-rule="evenodd">
        <g id="Artboard" transform="translate(-34.000000, -1053.000000)" fill-rule="nonzero">
            <g id="Group-4" transform="translate(34.000000, 1053.000000)">
                <polygon id="Path-Copy-3" fill="#C6CCD8" points="2.66666667 5.36946617 12.0878907 5.36946617 11.4453125 6.33333333 12.5546875 7.07291667 14.578776 4.03613283 2.66666667 4.03613283"></polygon>
                <polygon id="Path-Copy-6" fill="#C6CCD8" points="13.328776 1.7027995 4.57421867 1.7027995 5.21679683 0.739583333 4.10742183 0 2.08333333 3.03613283 13.328776 3.03613283"></polygon>
                <g id="Group-3" transform="translate(0.000000, 8.000000)" fill="#AFB9CA">
                    <polygon id="Path" points="0.878958899 0.798404775 0.878958899 3.80952381 1.52380952 3.80952381 1.52380952 0 1.00381665 0 0 0.726302723 0.265322712 1.21437815"></polygon>
                    <path d="M4.57625075,3.80952381 C5.46835443,3.80952381 6.0952381,3.02199765 6.0952381,1.90220997 C6.0952381,0.787526157 5.46835443,0 4.57625075,0 C3.68028933,0 3.04761905,0.787526157 3.04761905,1.90220997 C3.04761905,3.02199765 3.68028933,3.80952381 4.57625075,3.80952381 L4.57625075,3.80952381 Z M4.57625075,0.610677283 C5.08764316,0.610677283 5.45220012,1.14122391 5.45220012,1.90220997 C5.45220012,2.66319604 5.08764316,3.19884653 4.57625075,3.19884653 C4.06003617,3.19884653 3.69572031,2.66294085 3.69572031,1.90220997 C3.69572031,1.1414791 4.06003617,0.610677283 4.57625075,0.610677283 L4.57625075,0.610677283 Z" id="Shape"></path>
                    <polygon id="Path" points="7.73606371 0.798404775 7.73606371 3.80952381 8.38095238 3.80952381 8.38095238 0 7.86088087 0 6.85714286 0.726302723 7.12237933 1.21437815"></polygon>
                    <polygon id="Path" points="10.7835779 0.798404775 10.7835779 3.80952381 11.4285714 3.80952381 11.4285714 0 10.9084154 0 9.9047619 0.726302723 10.1702892 1.21437815"></polygon>
                    <path d="M14.4808925,3.80952381 C15.3730667,3.80952381 16,3.02199765 16,1.90220997 C16,0.787526157 15.3730667,0 14.4808925,0 C13.5851013,0 12.952381,0.787526157 12.952381,1.90220997 C12.952381,3.02199765 13.5851013,3.80952381 14.4808925,3.80952381 Z M14.4808925,0.610677283 C14.9925665,0.610677283 15.3569111,1.14122391 15.3569111,1.90220997 C15.3569111,2.66319604 14.9925665,3.19884653 14.4808925,3.19884653 C13.9648782,3.19884653 13.6002924,2.66294085 13.6002924,1.90220997 C13.6002924,1.1414791 13.9648782,0.610677283 14.4808925,0.610677283 L14.4808925,0.610677283 Z" id="Shape"></path>
                </g>
            </g>
        </g>
    </g>
</svg>