<?xml version="1.0" encoding="UTF-8"?>
<svg width="16px" height="16px" viewBox="0 0 16 16" version="1.1" xmlns="http://www.w3.org/2000/svg" xmlns:xlink="http://www.w3.org/1999/xlink">
    <!-- Generator: Sketch 63.1 (92452) - https://sketch.com -->
    <title>2522089</title>
    <desc>Created with Sketch.</desc>
    <g id="Icons" stroke="none" stroke-width="1" fill="none" fill-rule="evenodd">
        <g id="Artboard" transform="translate(-33.000000, -86.000000)" fill="#C5CCD9">
            <g id="2522089" transform="translate(33.000000, 86.000000)">
                <g id="Group">
                    <path d="M8.17142857,6.66666667 C7.18094743,6.66666667 6.34286057,6.34259583 5.65714286,5.69444444 C4.97142514,5.04629306 4.62857143,4.25926389 4.62857143,3.33333333 C4.62857143,2.40740278 4.97142514,1.62037361 5.65714286,0.972222222 C6.34286057,0.324070833 7.18094743,1.49213975e-14 8.17142857,1.49213975e-14 C9.12381429,1.49213975e-14 9.94285371,0.324070833 10.6285714,0.972222222 C11.3142891,1.62037361 11.6571429,2.40740278 11.6571429,3.33333333 C11.6571429,4.25926389 11.3142891,5.04629306 10.6285714,5.69444444 C9.94285371,6.34259583 9.12381429,6.66666667 8.17142857,6.66666667 Z" id="Path"></path>
                    <path d="M2.8,10.1666667 C4.666676,9.46295944 6.45713429,9.11111111 8.17142857,9.11111111 C8.05714286,11.037037 8,13.3333333 8,16 L-1.77635684e-15,16 L-1.77635684e-15,13 C-1.77635684e-15,11.8148089 0.933324,10.8703739 2.8,10.1666667 Z" id="Path"></path>
                </g>
                <path d="M9,12.4285714 C9,14.3221191 10.5350237,15.8571429 12.4285714,15.8571429 C14.3221191,15.8571429 15.8571429,14.3221191 15.8571429,12.4285714 C15.8571429,10.5350237 14.3221191,9 12.4285714,9 C10.5359049,9.00212566 9.00212566,10.5359049 9,12.4285714 Z M10.4285714,12.1428571 L12.1428571,12.1428571 L12.1428571,10.4285714 C12.1428571,10.2707758 12.2707758,10.1428571 12.4285714,10.1428571 C12.5863671,10.1428571 12.7142857,10.2707758 12.7142857,10.4285714 L12.7142857,12.1428571 L14.4285714,12.1428571 C14.5863671,12.1428571 14.7142857,12.2707758 14.7142857,12.4285714 C14.7142857,12.5863671 14.5863671,12.7142857 14.4285714,12.7142857 L12.7142857,12.7142857 L12.7142857,14.4285714 C12.7142857,14.5863671 12.5863671,14.7142857 12.4285714,14.7142857 C12.2707758,14.7142857 12.1428571,14.5863671 12.1428571,14.4285714 L12.1428571,12.7142857 L10.4285714,12.7142857 C10.2707758,12.7142857 10.1428571,12.5863671 10.1428571,12.4285714 C10.1428571,12.2707758 10.2707758,12.1428571 10.4285714,12.1428571 Z" id="Shape" fill-rule="nonzero"></path>
            </g>
        </g>
    </g>
</svg>