<?xml version="1.0" encoding="UTF-8" standalone="no"?>
<svg
   xmlns:dc="http://purl.org/dc/elements/1.1/"
   xmlns:cc="http://creativecommons.org/ns#"
   xmlns:rdf="http://www.w3.org/1999/02/22-rdf-syntax-ns#"
   xmlns:svg="http://www.w3.org/2000/svg"
   xmlns="http://www.w3.org/2000/svg"
   xmlns:sodipodi="http://sodipodi.sourceforge.net/DTD/sodipodi-0.dtd"
   xmlns:inkscape="http://www.inkscape.org/namespaces/inkscape"
   width="100%"
   height="100%"
   viewBox="0 0 16 16"
   version="1.1"
   xml:space="preserve"
   style="fill-rule:evenodd;clip-rule:evenodd;stroke-linejoin:round;stroke-miterlimit:2;"
   id="svg5"
   sodipodi:docname="auth2.svg"
   inkscape:version="0.92.2 5c3e80d, 2017-08-06"><metadata
     id="metadata11"><rdf:RDF><cc:Work
         rdf:about=""><dc:format>image/svg+xml</dc:format><dc:type
           rdf:resource="http://purl.org/dc/dcmitype/StillImage" /></cc:Work></rdf:RDF></metadata><defs
     id="defs9" /><sodipodi:namedview
     pagecolor="#ffffff"
     bordercolor="#666666"
     borderopacity="1"
     objecttolerance="10"
     gridtolerance="10"
     guidetolerance="10"
     inkscape:pageopacity="0"
     inkscape:pageshadow="2"
     inkscape:window-width="640"
     inkscape:window-height="480"
     id="namedview7"
     showgrid="false"
     inkscape:zoom="20.85965"
     inkscape:cx="6.1929978"
     inkscape:cy="8.4368577"
     inkscape:window-x="0"
     inkscape:window-y="0"
     inkscape:window-maximized="0"
     inkscape:current-layer="svg5" /><path
     inkscape:connector-curvature="0"
     style="fill:#a0aabe;fill-opacity:0.6"
     d="M 8,15.991 C 3.589,15.991 0,12.404 0,7.996 0,3.587 3.589,0 8,0 c 4.411,0 8,3.587 8,7.996 0,4.408 -3.589,7.995 -8,7.995 z M 8,2 C 4.692,2 2,4.69 2,7.996 c 0,3.305 2.692,5.995 6,5.995 3.309,0 6,-2.69 6,-5.995 C 14,4.69 11.309,2 8,2 Z"
     id="Fill-133" /><path
     inkscape:connector-curvature="0"
     style="fill:#a0aabe;fill-opacity:0.6"
     d="m 10.4,6.196 c 0.442,-0.331 1.069,-0.242 1.4,0.2 0.331,0.442 0.242,1.069 -0.2,1.4 l -4,2.998 C 7.202,11.093 6.645,11.053 6.293,10.701 l -2,-1.998 C 3.902,8.312 3.902,7.679 4.293,7.289 4.683,6.898 5.316,6.898 5.707,7.288 l 1.387,1.386 z"
     id="Fill-136" /></svg>