<?xml version="1.0" encoding="UTF-8"?>
<svg width="14px" height="14px" viewBox="0 0 14 14" version="1.1" xmlns="http://www.w3.org/2000/svg" xmlns:xlink="http://www.w3.org/1999/xlink">
    <!-- Generator: Sketch 63.1 (92452) - https://sketch.com -->
    <title>561790</title>
    <desc>Created with Sketch.</desc>
    <g id="Icons" stroke="none" stroke-width="1" fill="none" fill-rule="evenodd">
        <g id="Artboard" transform="translate(-33.000000, -180.000000)" fill="#C5CCD9" fill-rule="nonzero">
            <g id="561790" transform="translate(33.000000, 180.000000)">
                <path d="M13.7158711,10.1336758 L8.76484766,1.01896484 C8.39116797,0.389894531 7.73119922,0.0141914063 6.99948047,0.0141914063 C6.26776172,0.0141914063 5.60779297,0.389894531 5.23411328,1.01896484 C5.23129687,1.02377734 5.22891797,1.02858984 5.22610156,1.03340234 L0.291539062,10.1192656 C-0.0901523438,10.7615977 -0.0973710938,11.5329922 0.271878906,12.182543 C0.641976562,12.8324766 1.30872656,13.2201836 2.05649609,13.2201836 L11.9151211,13.2201836 C12.6628906,13.2201836 13.3570391,12.8324766 13.7271094,12.182543 C14.0963594,11.5330195 14.089168,10.7615703 13.7158711,10.1336758 Z M6.17834766,4.18764063 C6.17834766,3.73411719 6.54598438,3.36650781 6.99948047,3.36650781 C7.45300391,3.36650781 7.82061328,3.73414453 7.82061328,4.18764063 L7.82061328,7.47219922 C7.82061328,7.92566797 7.45297656,8.29333203 6.99948047,8.29333203 C6.54598437,8.29333203 6.17834766,7.92564063 6.17834766,7.47219922 L6.17834766,4.18764063 L6.17834766,4.18764063 Z M6.99948047,11.577918 C6.32028906,11.577918 5.76775391,11.0254102 5.76775391,10.3461914 C5.76775391,9.667 6.32026172,9.11449219 6.99948047,9.11449219 C7.67867187,9.11449219 8.23117969,9.667 8.23117969,10.3461914 C8.23120703,11.0253828 7.67869922,11.577918 6.99948047,11.577918 Z" id="Shape"></path>
            </g>
        </g>
    </g>
</svg>