<?xml version="1.0" encoding="UTF-8"?>
<svg width="16px" height="10px" viewBox="0 0 16 10" version="1.1" xmlns="http://www.w3.org/2000/svg" xmlns:xlink="http://www.w3.org/1999/xlink">
    <!-- Generator: Sketch 63.1 (92452) - https://sketch.com -->
    <title></title>
    <desc>Created with Sketch.</desc>
    <g id="Icons" stroke="none" stroke-width="1" fill="none" fill-rule="evenodd">
        <g id="Artboard" transform="translate(-32.000000, -549.000000)" fill="#AFB9CA" fill-rule="nonzero">
            <path d="M42.8928571,553.166667 C42.2976161,553.166667 41.7857164,552.964122 41.3571429,552.559028 C40.9285693,552.153933 40.7142857,551.66204 40.7142857,551.083333 C40.7142857,550.504627 40.9285693,550.012734 41.3571429,549.607639 C41.7857164,549.202544 42.2976161,549 42.8928571,549 C43.5119079,549 44.0357121,549.202544 44.4642857,549.607639 C44.8928593,550.012734 45.1071429,550.504627 45.1071429,551.083333 C45.1071429,551.66204 44.8928593,552.153933 44.4642857,552.559028 C44.0357121,552.964122 43.5119079,553.166667 42.8928571,553.166667 Z M37.1071429,553.166667 C36.4880921,553.166667 35.9642879,552.964122 35.5357143,552.559028 C35.1071407,552.153933 34.8928571,551.66204 34.8928571,551.083333 C34.8928571,550.504627 35.1071407,550.012734 35.5357143,549.607639 C35.9642879,549.202544 36.4880921,549 37.1071429,549 C37.7023839,549 38.2142836,549.202544 38.6428571,549.607639 C39.0714307,550.012734 39.2857143,550.504627 39.2857143,551.083333 C39.2857143,551.66204 39.0714307,552.153933 38.6428571,552.559028 C38.2142836,552.964122 37.7023839,553.166667 37.1071429,553.166667 Z M33.75,555.354167 C34.9166725,554.91435 36.0357089,554.694444 37.1071429,554.694444 C38.1785768,554.694444 39.3095179,554.91435 40.5,555.354167 C41.6904821,555.793984 42.2857143,556.384256 42.2857143,557.125 L42.2857143,559 L32,559 L32,557.125 C32,556.384256 32.5833275,555.793984 33.75,555.354167 Z M42.8928571,555.076389 C44.0833393,555.076389 45.2321373,555.238424 46.3392857,555.5625 C47.4464341,555.886576 48,556.407404 48,557.125 L48,559 L43.4285714,559 L43.4285714,557.125 C43.4285714,556.638886 43.3452389,556.262733 43.1785714,555.996528 C43.0119039,555.730323 42.7142879,555.435187 42.2857143,555.111111 C42.4523818,555.087963 42.6547607,555.076389 42.8928571,555.076389 Z" id=""></path>
        </g>
    </g>
</svg>