<?xml version="1.0" encoding="UTF-8"?>
<svg width="14px" height="14px" viewBox="0 0 14 14" version="1.1" xmlns="http://www.w3.org/2000/svg" xmlns:xlink="http://www.w3.org/1999/xlink">
    <!-- Generator: Sketch 63.1 (92452) - https://sketch.com -->
    <title>1825814</title>
    <desc>Created with Sketch.</desc>
    <g id="Icons" stroke="none" stroke-width="1" fill="none" fill-rule="evenodd">
        <g id="Artboard" transform="translate(-32.000000, -316.000000)" fill="#AFB9CA" fill-rule="nonzero">
            <g id="1825814" transform="translate(32.000000, 316.000000)">
                <polygon id="Path" points="10.8397674 7.33752441 12.4802856 7.33752441 12.4802856 11.265625 10.8397674 11.265625"></polygon>
                <polygon id="Path" points="7.73304749 7.33752441 9.37367249 7.33752441 9.37367249 11.265625 7.73304749 11.265625"></polygon>
                <polygon id="Path" points="4.62632751 7.33752441 6.26695251 7.33752441 6.26695251 11.265625 4.62632751 11.265625"></polygon>
                <polygon id="Path" points="1.51971436 7.33752441 3.16023255 7.33752441 3.16023255 11.265625 1.51971436 11.265625"></polygon>
                <path d="M13.0272674,6.10705566 L13.0272674,5.69689941 L0.972839355,5.69689941 L0.972839355,6.10705566 C0.972839355,6.3336029 1.15644837,6.51721191 1.38299561,6.51721191 L12.6171112,6.51721191 C12.8435516,6.51721191 13.0272674,6.3336029 13.0272674,6.10705566 Z" id="Path"></path>
                <path d="M13.5896301,12.0859375 L0.410583496,12.0859375 C0.184036262,12.0859375 0.000427246094,12.2695465 0.000427246094,12.4960938 L0.000427246094,13.5898438 C0.000427246094,13.816391 0.184036262,14 0.410583496,14 L13.5896301,14 C13.8161774,14 13.9997864,13.816391 13.9997864,13.5898438 L13.9997864,12.4960938 C13.9997864,12.2695465 13.8161774,12.0859375 13.5896301,12.0859375 Z" id="Path"></path>
                <path d="M0.41015625,4.87658691 L13.5898438,4.87658691 C13.773346,4.87658691 13.9345245,4.75471497 13.9845123,4.57815553 C14.0343933,4.40159606 13.9611206,4.21328737 13.8048553,4.11715697 L7.21501159,0.0608825547 C7.08320618,-0.0202942031 6.91690065,-0.0202942031 6.78498841,0.0608825547 L0.19514466,4.11715697 C0.0388793945,4.21339417 -0.0343932969,4.40159606 0.0155944687,4.57815553 C0.0655822891,4.75471497 0.226760871,4.87658691 0.41015625,4.87658691 Z M6.72122194,2.41244505 L7.27888489,2.41244505 C7.50543213,2.41244505 7.68904114,2.59605407 7.68904114,2.8226013 C7.68904114,3.04914857 7.50543213,3.23275755 7.27888489,3.23275755 L6.72122194,3.23275755 C6.49467468,3.23275755 6.31106569,3.04914857 6.31106569,2.8226013 C6.31106569,2.59605407 6.49467468,2.41244505 6.72122194,2.41244505 L6.72122194,2.41244505 Z" id="Shape"></path>
            </g>
        </g>
    </g>
</svg>