<?xml version="1.0" encoding="UTF-8"?>
<svg width="14px" height="16px" viewBox="0 0 14 16" version="1.1" xmlns="http://www.w3.org/2000/svg" xmlns:xlink="http://www.w3.org/1999/xlink">
    <!-- Generator: Sketch 63.1 (92452) - https://sketch.com -->
    <title>Combined Shape</title>
    <desc>Created with Sketch.</desc>
    <g id="Icons" stroke="none" stroke-width="1" fill="none" fill-rule="evenodd">
        <g id="Artboard" transform="translate(-32.000000, -222.000000)" fill="#AFB9CA" fill-rule="nonzero">
            <path d="M46,222 L46,238 L43.1354863,238 L43.1354863,235.406004 L34.8645137,235.406004 L34.8645137,238 L32,238 L32,222 L46,222 Z M42.1908296,236.343559 L42.1908296,238 L35.8091704,238 L35.8091704,236.343559 L42.1908296,236.343559 Z M35.5438793,233.109713 L34.5992227,233.109713 L34.5992227,234.0473 L35.5438793,234.0473 L35.5438793,233.109713 Z M37.1184015,233.109713 L36.1737448,233.109713 L36.1737448,234.0473 L37.1184015,234.0473 L37.1184015,233.109713 Z M38.6929236,233.109713 L37.748267,233.109713 L37.748267,234.0473 L38.6929236,234.0473 L38.6929236,233.109713 Z M35.5438793,231.546997 L34.5992227,231.546997 L34.5992227,232.484614 L35.5438793,232.484614 L35.5438793,231.546997 Z M37.1184015,231.546997 L36.1737448,231.546997 L36.1737448,232.484614 L37.1184015,232.484614 L37.1184015,231.546997 Z M38.6929236,231.546997 L37.748267,231.546997 L37.748267,232.484614 L38.6929236,232.484614 L38.6929236,231.546997 Z M43.4008088,231.547028 L40.1363904,231.547028 L40.1363904,232.484583 L43.4008088,232.484583 L43.4008088,231.547028 Z M35.5438793,229.984312 L34.5992227,229.984312 L34.5992227,230.921898 L35.5438793,230.921898 L35.5438793,229.984312 Z M37.1184015,229.984312 L36.1737448,229.984312 L36.1737448,230.921898 L37.1184015,230.921898 L37.1184015,229.984312 Z M38.6929236,229.984312 L37.748267,229.984312 L37.748267,230.921898 L38.6929236,230.921898 L38.6929236,229.984312 Z M42.2186655,223.562685 L33.8894392,223.562685 L33.8894392,228.638295 L42.2186655,228.638295 L42.2186655,223.562685 Z M44.1105608,227.194367 L43.1659042,227.194367 L43.1659042,228.131984 L44.1105608,228.131984 L44.1105608,227.194367 Z M41.2740089,224.50024 L41.2740089,227.70074 L34.8340958,227.70074 L34.8340958,224.50024 L41.2740089,224.50024 Z M44.1105608,225.631682 L43.1659042,225.631682 L43.1659042,226.569268 L44.1105608,226.569268 L44.1105608,225.631682 Z M44.1105608,224.068996 L43.1659042,224.068996 L43.1659042,225.006614 L44.1105608,225.006614 L44.1105608,224.068996 Z" id="Combined-Shape"></path>
        </g>
    </g>
</svg>