<?xml version="1.0" encoding="UTF-8"?>
<svg width="17px" height="16px" viewBox="0 0 17 16" version="1.1" xmlns="http://www.w3.org/2000/svg" xmlns:xlink="http://www.w3.org/1999/xlink">
    <!-- Generator: Sketch 63.1 (92452) - https://sketch.com -->
    <title>726546</title>
    <desc>Created with Sketch.</desc>
    <g id="Icons" stroke="none" stroke-width="1" fill="none" fill-rule="evenodd">
        <g id="Artboard" transform="translate(-32.000000, -822.000000)" fill="#AFB9CA" fill-rule="nonzero">
            <g id="726546" transform="translate(32.000000, 822.000000)">
                <polygon id="Path" points="10.0787402 2.8432126 10.0787402 2.8391811 13.096315 4.19074016 16.1259843 3.05486614 8.06299213 0.0312440945 0 3.05486614 8.06299213 6.07848819 11.0805669 4.94664567 8.06299213 3.70292913 8.06299213 3.69990551"></polygon>
                <path d="M0,4.06274016 L0,13.1336063 L7.55905512,15.9687559 L7.55905512,6.89788976 L0,4.06274016 Z M4.03149606,13.1668661 L2.01574803,12.4109606 L2.01574803,11.3355591 L4.03149606,12.0914646 L4.03149606,13.1668661 Z" id="Shape"></path>
                <polygon id="Path" points="13.1023622 5.19659843 13.1023622 7.72132283 11.0866142 8.47722835 11.0866142 5.95250394 8.56692913 6.89788976 8.56692913 15.9687559 16.1259843 13.1336063 16.1259843 4.06274016"></polygon>
            </g>
        </g>
    </g>
</svg>