<?xml version="1.0" encoding="UTF-8"?>
<svg width="16px" height="16px" viewBox="0 0 16 16" version="1.1" xmlns="http://www.w3.org/2000/svg" xmlns:xlink="http://www.w3.org/1999/xlink">
    <!-- Generator: Sketch 63.1 (92452) - https://sketch.com -->
    <title>2577829</title>
    <desc>Created with Sketch.</desc>
    <g id="Icons" stroke="none" stroke-width="1" fill="none" fill-rule="evenodd">
        <g id="Artboard" transform="translate(-32.000000, -730.000000)" fill="#AFB9CA" fill-rule="nonzero">
            <g id="2577829" transform="translate(32.000000, 730.000000)">
                <path d="M0.46875,15.9690937 L15.53125,15.9690937 C15.790125,15.9690937 16,15.7592187 16,15.5003437 L16,4.1903125 L0,4.1903125 L0,15.5003437 C0,15.7592187 0.209875,15.9690937 0.46875,15.9690937 Z M1.20603125,7.95525 C1.20603125,7.69859375 1.41240625,7.4896875 1.66903125,7.48653125 C2.5704375,7.47546875 3.2851875,6.76071875 3.29621875,5.85934375 C3.299375,5.60271875 3.5083125,5.39634375 3.7649375,5.39634375 L12.234375,5.39634375 C12.49325,5.39634375 12.703125,5.60621875 12.703125,5.86509375 L12.703125,5.87828125 C12.703125,6.7726875 13.4307813,7.50034375 14.3252187,7.50034375 C14.5840937,7.50034375 14.7939687,7.71021875 14.7939687,7.96909375 L14.7939687,12.204125 C14.7939687,12.4607813 14.5875937,12.6696875 14.3309688,12.6728438 C13.4295625,12.6839062 12.7148125,13.3986563 12.7037813,14.3000312 C12.700625,14.5566562 12.4916875,14.7630313 12.2350625,14.7630313 L3.765625,14.7630313 C3.50675,14.7630313 3.296875,14.5531563 3.296875,14.2942813 L3.296875,14.2810938 C3.296875,13.3866875 2.56921875,12.6590312 1.67478125,12.6590312 C1.41590625,12.6590312 1.20603125,12.4491562 1.20603125,12.1902812 L1.20603125,7.95525 Z" id="Shape"></path>
                <polygon id="Path" points="0 2.12309375 16 2.12309375 16 3.25278125 0 3.25278125"></polygon>
                <path d="M0,1.160625 L16,1.160625 L16,0.4996875 C16,0.2408125 15.790125,0.0309375 15.53125,0.0309375 L0.46875,0.0309375 C0.209875,0.0309375 0,0.2408125 0,0.4996875 L0,1.160625 Z" id="Path"></path>
                <path d="M4.19378125,13.8255625 L11.8133438,13.8255625 C11.910375,13.3234375 12.1545313,12.86125 12.5233438,12.4924375 C12.8921562,12.123625 13.3543437,11.8794688 13.8564687,11.7824375 L13.8564687,8.39484375 C12.81575,8.20146875 11.99425,7.37640625 11.80625,6.33384375 L4.18665625,6.33384375 C4.089625,6.836 3.8455,7.298125 3.47665625,7.66696875 C3.10784375,8.03578125 2.64565625,8.2799375 2.14353125,8.37696875 L2.14353125,11.7645937 C3.18425,11.9579375 4.00578125,12.783 4.19378125,13.8255625 Z M8,7.50034375 C9.29690625,7.50034375 10.352,8.6491875 10.352,10.0612813 C10.352,11.473375 9.29690625,12.6222188 8,12.6222188 C6.70309375,12.6222188 5.648,11.473375 5.648,10.0612813 C5.648,8.6491875 6.70309375,7.50034375 8,7.50034375 Z" id="Shape"></path>
                <ellipse id="Oval" cx="8" cy="10.0612813" rx="1.4145" ry="1.6234375"></ellipse>
            </g>
        </g>
    </g>
</svg>