<!-- Generated by IcoMoon.io -->
<svg version="1.1" xmlns="http://www.w3.org/2000/svg" width="28" height="32" viewBox="0 0 28 32">
<title>statement</title>
<path d="M8 17.991c-1.105 0-2-0.895-2-2s0.895-2 2-2h12c1.105 0 2 0.895 2 2s-0.895 2-2 2h-12zM8 23.987c-1.105 0-2-0.895-2-2s0.895-2 2-2h12c1.105 0 2 0.895 2 2s-0.895 2-2 2h-12zM23.999 31.982h-20c-2.205 0-4-1.794-4-4v-23.985c0-2.204 1.794-3.998 4-3.998h20c2.206 0 4.001 1.793 4.001 3.998v23.985c0 2.205-1.795 4-4.001 4zM4 4v23.983l20-0.002v-23.981h-20zM8 11.995c-1.105 0-2-0.895-2-2s0.895-2 2-2h12c1.105 0 2 0.895 2 2s-0.895 2-2 2h-12z"></path>
</svg>
