<?xml version="1.0" encoding="UTF-8"?>
<svg width="16px" height="16px" viewBox="0 0 16 16" version="1.1" xmlns="http://www.w3.org/2000/svg" xmlns:xlink="http://www.w3.org/1999/xlink">
    <!-- Generator: Sketch 63.1 (92452) - https://sketch.com -->
    <title>409153</title>
    <desc>Created with Sketch.</desc>
    <g id="Icons" stroke="none" stroke-width="1" fill="none" fill-rule="evenodd">
        <g id="Artboard" transform="translate(-33.000000, -867.000000)" fill="#AFB9CA" fill-rule="nonzero">
            <g id="409153" transform="translate(33.000000, 867.000000)">
                <path d="M4.1915625,0 L4.1915625,7.30434375 L11.84375,7.30434375 L11.84375,0 L4.1915625,0 Z M10.104625,3.1304375 L5.93071875,3.1304375 L5.93071875,2.08696875 L10.104625,2.08696875 L10.104625,3.1304375 L10.104625,3.1304375 Z" id="Shape"></path>
                <path d="M0.01765625,8.3478125 L0.01765625,16 L7.322,16 L7.322,8.3478125 L0.01765625,8.3478125 Z M5.582875,11.47825 L1.75678125,11.47825 L1.75678125,10.4347813 L5.582875,10.4347813 L5.582875,11.47825 Z" id="Shape"></path>
                <path d="M8.3655,8.3478125 L8.3655,16 L15.6698438,16 L15.6698438,8.3478125 L8.3655,8.3478125 Z M13.9307187,11.47825 L10.104625,11.47825 L10.104625,10.4347813 L13.9307187,10.4347813 L13.9307187,11.47825 Z" id="Shape"></path>
            </g>
        </g>
    </g>
</svg>