<?xml version="1.0" encoding="UTF-8"?>
<svg width="14px" height="14px" viewBox="0 0 14 14" version="1.1" xmlns="http://www.w3.org/2000/svg" xmlns:xlink="http://www.w3.org/1999/xlink">
    <!-- Generator: Sketch 63.1 (92452) - https://sketch.com -->
    <title>1672544</title>
    <desc>Created with Sketch.</desc>
    <g id="Icons" stroke="none" stroke-width="1" fill="none" fill-rule="evenodd">
        <g id="Artboard" transform="translate(-33.000000, -777.000000)" fill="#AFB9CA" fill-rule="nonzero">
            <g id="1672544" transform="translate(33.000000, 777.000000)">
                <path d="M7.00002734,9.80161328 C6.60359766,9.80161328 6.21960937,9.74621484 5.85544531,9.64282813 L6.99917969,12.1329961 L8.14266797,9.64334766 C7.77910547,9.74640625 7.39577344,9.80161328 7.00002734,9.80161328 Z" id="Path"></path>
                <path d="M1.43532813,11.3831484 C1.33278906,11.1928906 1.28075391,10.9728008 1.29612109,10.7421289 L1.34060937,10.0978555 L0.915003906,10.0631562 C0.34671875,10.970832 0.0152304687,12.0243594 0.00210546875,13.1472031 C-0.0222304688,13.3888945 0.167289062,13.5987852 0.410183594,13.5987852 L4.59232812,13.5982656 C3.98833203,13.2076328 1.70846484,11.8898008 1.43532813,11.3831484 Z" id="Path"></path>
                <path d="M12.6578047,10.0978555 L12.702293,10.7421016 C12.7176602,10.9727734 12.6656523,11.1928906 12.5630859,11.3831484 C12.4612852,11.5719297 12.3088984,11.731043 12.1225781,11.841457 L9.40698828,13.5976641 L13.5898438,13.5971445 C13.8123672,13.5993047 13.9993984,13.4143242 13.9983908,13.1869883 C13.9927266,12.0491875 13.6600625,10.9814414 13.0849961,10.0629922 L12.6578047,10.0978555 Z" id="Path"></path>
                <path d="M6.50234375,13.0093906 L4.71890234,9.12644141 C4.46878906,8.96421094 4.23677734,8.77625 4.02680469,8.56627734 C3.54407812,8.08355078 3.17745312,7.48450391 2.97338672,6.81586719 L0.189492188,8.50891016 C-0.120203125,8.6905 -0.0205898437,9.16267187 0.335207031,9.19089062 L2.21336719,9.34664062 L2.11323437,10.7965703 C2.10352734,10.9423125 2.1800625,11.073918 2.29914453,11.141457 L6.00706641,13.5393945 C6.17728125,13.6499453 6.40491797,13.6015742 6.51546875,13.4313594 C6.58675391,13.3215742 6.59194922,13.1879453 6.54100781,13.0772305 L6.50234375,13.0093906 Z" id="Path"></path>
                <path d="M11.8851797,10.7965703 L11.7850469,9.34666797 L13.6618945,9.13795313 C14.0176914,9.10973438 14.1286797,8.63649609 13.8189844,8.45490625 L11.0264492,6.81671484 C10.8223281,7.48502344 10.4558125,8.08374219 9.97327734,8.56627734 C9.76264844,8.77690625 9.52984375,8.96538672 9.27882813,9.12797266 L7.49607031,13.009418 L7.45735156,13.0772852 C7.40641016,13.1879727 7.41160547,13.3216289 7.48291797,13.4314141 C7.59349609,13.6016289 7.82110547,13.65 7.99134766,13.5394492 L11.6992695,11.1415117 C11.8183789,11.0739453 11.8948867,10.9423398 11.8851797,10.7965703 Z" id="Path"></path>
                <path d="M7.00002734,8.98130078 C8.86437891,8.98130078 10.3882734,7.45740625 10.3882734,5.59305469 L10.3882734,4.82141406 L3.61178125,4.82141406 L3.61178125,5.59305469 C3.61178125,7.45740625 5.13567578,8.98130078 7.00002734,8.98130078 Z" id="Path"></path>
                <path d="M2.78908984,4.01214844 C5.59639062,4.01214844 8.40366406,4.01214844 11.2109648,4.01214844 C11.4374805,4.01214844 11.6211211,3.82850781 11.6211211,3.60199219 C11.6211211,3.37547656 11.4374805,3.19183594 11.2109648,3.19183594 L10.4906484,3.19183594 C10.2561211,2.22619141 10.0760078,1.03985547 9.4115,0.375320312 C8.8178125,-0.218367188 8.39073047,0.0690429687 7.86400781,0.423527344 C7.61537109,0.590871094 7.32910937,0.783535156 7.00120312,0.783535156 C6.68212891,0.783535156 6.40415234,0.589941406 6.16172266,0.42109375 C5.63620312,0.0550703125 5.20841016,-0.242839844 4.59027734,0.375292969 C3.905125,1.06044531 3.70261719,2.22003906 3.49887891,3.19186328 L2.78911719,3.19186328 C2.56260156,3.19186328 2.37896094,3.37550391 2.37896094,3.60201953 C2.37896094,3.82850781 2.56257422,4.01214844 2.78908984,4.01214844 Z" id="Path"></path>
            </g>
        </g>
    </g>
</svg>