<?xml version="1.0" encoding="UTF-8"?>
<svg width="16px" height="16px" viewBox="0 0 16 16" version="1.1" xmlns="http://www.w3.org/2000/svg" xmlns:xlink="http://www.w3.org/1999/xlink">
    <!-- Generator: Sketch 63.1 (92452) - https://sketch.com -->
    <title>634758</title>
    <desc>Created with Sketch.</desc>
    <g id="Icons" stroke="none" stroke-width="1" fill="none" fill-rule="evenodd">
        <g id="Artboard" transform="translate(-32.000000, -637.000000)" fill="#AFB9CA" fill-rule="nonzero">
            <g id="634758" transform="translate(32.000000, 637.000000)">
                <path d="M15.99,15.5853437 L15.472,13.514 C15.3533438,13.0413437 15.036,12.6446563 14.6,12.4273438 L11.1486563,10.702 C11.0673125,10.6613438 10.9713125,10.656 10.8846563,10.6873438 C10.798,10.7186875 10.7293125,10.7846875 10.6926563,10.8693438 L8.976,14.8753437 L8.72334375,14.3706875 C8.9466875,14.0646875 9.33334375,13.4653437 9.33334375,13.0000312 C9.33334375,12.383375 8.822,12.0000313 8,12.0000313 C7.178,12.0000313 6.66665625,12.383375 6.66665625,13.0000312 C6.66665625,13.465375 7.0533125,14.0646875 7.276,14.3700313 L7.02334375,14.8746875 L5.3066875,10.8686875 C5.27003125,10.7840313 5.20134375,10.7180313 5.1146875,10.6866875 C5.02803125,10.6560313 4.93334375,10.6606875 4.8506875,10.7013438 L1.4,12.4273438 C0.96465625,12.6453438 0.64665625,13.0413438 0.528,13.514 L0.01,15.5853437 C-0.01465625,15.6846875 0.00734375,15.7906875 0.07065625,15.8713437 C0.1333125,15.9526875 0.23065625,16 0.3333125,16 L15.6666562,16 C15.7693125,16 15.8666563,15.9526563 15.93,15.872 C15.9926563,15.7913437 16.0146563,15.6853437 15.99,15.5853437 Z" id="Path"></path>
                <path d="M12.5366563,5.48865625 C12.4786563,5.314 12.29,5.2193125 12.1153125,5.278 C11.9406562,5.336 11.8466563,5.52465625 11.9046563,5.69934375 C11.9673125,5.886 12,6.10534375 12,6.33334375 C12,6.978 11.76,7.3326875 11.6453438,7.318 C11.5553438,7.262 11.4426875,7.252 11.344,7.292 C11.2453125,7.332 11.172,7.41734375 11.146,7.52065625 C10.6793125,9.40265625 9.4153125,10.6666563 8,10.6666563 C6.5846875,10.6666563 5.32065625,9.40265625 4.854,7.52065625 C4.828,7.4173125 4.744,7.34 4.64534375,7.3 C4.546,7.25934375 4.424,7.27734375 4.33334375,7.33334375 C4.25,7.33334375 4,6.9786875 4,6.33334375 C4,6.10534375 4.03265625,5.886 4.09534375,5.69934375 C4.15334375,5.52534375 4.05934375,5.336 3.884,5.278 C3.70934375,5.21934375 3.52065625,5.314 3.46265625,5.48865625 C3.378,5.742 3.3333125,6.034 3.3333125,6.3333125 C3.3333125,7.26196875 3.74396875,7.9673125 4.29396875,7.9993125 C4.8993125,10.0066563 6.358,11.3333438 8,11.3333438 C9.642,11.3333438 11.1006563,10.0066875 11.706,7.99934375 C12.256,7.96734375 12.6666562,7.262 12.6666562,6.33334375 C12.6666562,6.034 12.622,5.742 12.5366563,5.48865625 Z" id="Path"></path>
                <path d="M8,0 C5.42665625,0 3.33334375,2.09334375 3.33334375,4.66665625 C3.33334375,4.976 3.37134375,5.2933125 3.45334375,5.666 C3.4866875,5.81865625 3.622,5.928 3.7786875,5.928 C4.15603125,5.928 4.61203125,5.996 4.6166875,5.99665625 C4.63603125,5.9993125 4.6526875,6.00065625 4.67334375,6 C4.85534375,6.00265625 5.01334375,5.85334375 5.01334375,5.66665625 C5.01334375,5.626 5.006,5.588 4.99334375,5.552 C4.9526875,4.88665625 4.9946875,4.214 5.08734375,4 L5.138,4 C6.29065625,4 6.86534375,3.634 7.13065625,3.172 C7.8493125,3.88134375 9.29465625,4.56534375 10.692,4.656 C10.7713437,5.216 11.0166563,5.77334375 11.0293437,5.80134375 C11.0826875,5.92334375 11.2026875,6 11.3333437,6 C11.342,6 11.3513437,6 11.3606875,5.99934375 L12.2486875,5.9266875 C12.3946875,5.9146875 12.5153438,5.8086875 12.5473438,5.66603125 C12.6286875,5.293375 12.6666875,4.97603125 12.6666875,4.6666875 C12.6666875,2.09334375 10.5733125,0 8,0 Z" id="Path"></path>
                <path d="M7,6 L6.33334375,6 C6.14934375,6 6,6.14934375 6,6.33334375 C6,6.51734375 6.14934375,6.6666875 6.33334375,6.6666875 L7,6.6666875 C7.184,6.6666875 7.33334375,6.51734375 7.33334375,6.33334375 C7.33334375,6.14934375 7.184,6 7,6 Z" id="Path"></path>
                <path d="M9.66665625,6 L9,6 C8.816,6 8.66665625,6.14934375 8.66665625,6.33334375 C8.66665625,6.51734375 8.816,6.6666875 9,6.6666875 L9.66665625,6.6666875 C9.85065625,6.6666875 10,6.51734375 10,6.33334375 C10,6.14934375 9.85065625,6 9.66665625,6 Z" id="Path"></path>
            </g>
        </g>
    </g>
</svg>